<svg xmlns="http://www.w3.org/2000/svg" viewBox="0 0 127.5 127.5"><defs><style>.cls-1{fill:none;}.cls-1,.cls-2{stroke:#ffde17;stroke-miterlimit:10;stroke-width:0.5px;}.cls-2{fill:#ffde17;}</style></defs><g id="Layer_2" data-name="Layer 2"><g id="Layer_2-2" data-name="Layer 2"><path class="cls-1" d="M104.84,67.48H97.37V60h14.94V45.08h-7.47V30.13H97.37V22.66h-15V15.19H67.48V30.13H60V15.19H45.08v7.47H30.13v7.47H22.66v15H15.19V60H30.13v7.46H15.19V82.42h7.47v15h7.47v7.47h15v7.47H60V97.37h7.46v14.94H82.42v-7.47h15V97.37h7.47v-15h7.47V67.48ZM82.42,60V75H75v7.47H52.55V75H45.08V52.55h7.47V45.08H75v7.47h7.47Z"/><rect class="cls-2" x="119.78" y="74.95" width="7.47" height="7.47"/><rect class="cls-2" x="119.78" y="67.48" width="7.47" height="7.47"/><rect class="cls-2" x="119.78" y="60.02" width="7.47" height="7.46"/><rect class="cls-2" x="119.78" y="52.55" width="7.47" height="7.47"/><rect class="cls-2" x="119.78" y="45.08" width="7.47" height="7.47"/><rect class="cls-2" x="112.31" y="89.89" width="7.47" height="7.47"/><rect class="cls-2" x="112.31" y="82.42" width="7.47" height="7.47"/><rect class="cls-2" x="112.31" y="74.95" width="7.47" height="7.47"/><rect class="cls-2" x="112.31" y="67.48" width="7.47" height="7.47"/><rect class="cls-2" x="112.31" y="60.02" width="7.47" height="7.46"/><rect class="cls-2" x="112.31" y="52.55" width="7.47" height="7.47"/><rect class="cls-2" x="112.31" y="45.08" width="7.47" height="7.47"/><rect class="cls-2" x="112.31" y="37.61" width="7.47" height="7.47"/><rect class="cls-2" x="112.31" y="30.13" width="7.47" height="7.47"/><rect class="cls-2" x="104.84" y="104.84" width="7.47" height="7.47"/><rect class="cls-2" x="104.84" y="97.37" width="7.47" height="7.47"/><rect class="cls-2" x="104.84" y="89.89" width="7.47" height="7.47"/><rect class="cls-2" x="104.84" y="82.42" width="7.47" height="7.47"/><rect class="cls-2" x="104.84" y="60.02" width="7.47" height="7.46"/><rect class="cls-2" x="104.84" y="37.61" width="7.47" height="7.47"/><rect class="cls-2" x="104.84" y="30.13" width="7.47" height="7.47"/><rect class="cls-2" x="104.84" y="22.66" width="7.47" height="7.47"/><rect class="cls-2" x="104.84" y="15.19" width="7.47" height="7.47"/><rect class="cls-2" x="97.37" y="104.84" width="7.47" height="7.47"/><rect class="cls-2" x="97.37" y="97.37" width="7.47" height="7.47"/><rect class="cls-2" x="97.37" y="60.02" width="7.47" height="7.46"/><rect class="cls-2" x="97.37" y="22.66" width="7.47" height="7.47"/><rect class="cls-2" x="97.37" y="15.19" width="7.47" height="7.47"/><rect class="cls-2" x="89.89" y="112.31" width="7.47" height="7.47"/><rect class="cls-2" x="89.89" y="104.84" width="7.47" height="7.47"/><rect class="cls-2" x="89.89" y="15.19" width="7.47" height="7.47"/><rect class="cls-2" x="89.89" y="7.72" width="7.47" height="7.47"/><rect class="cls-2" x="82.42" y="112.31" width="7.47" height="7.47"/><rect class="cls-2" x="82.42" y="104.84" width="7.47" height="7.47"/><rect class="cls-2" x="82.42" y="15.19" width="7.47" height="7.47"/><rect class="cls-2" x="82.42" y="7.72" width="7.47" height="7.47"/><rect class="cls-2" x="74.95" y="119.78" width="7.47" height="7.47"/><rect class="cls-2" x="74.95" y="112.31" width="7.47" height="7.47"/><rect class="cls-2" x="74.95" y="67.48" width="7.47" height="7.47"/><rect class="cls-2" x="74.95" y="60.02" width="7.47" height="7.46"/><rect class="cls-2" x="74.95" y="52.55" width="7.47" height="7.47"/><rect class="cls-2" x="74.95" y="7.72" width="7.47" height="7.47"/><rect class="cls-2" x="74.95" y="0.25" width="7.47" height="7.47"/><rect class="cls-2" x="67.48" y="119.78" width="7.47" height="7.47"/><rect class="cls-2" x="67.48" y="112.31" width="7.47" height="7.47"/><rect class="cls-2" x="67.48" y="74.95" width="7.47" height="7.47"/><rect class="cls-2" x="67.48" y="67.48" width="7.47" height="7.47"/><rect class="cls-2" x="67.48" y="60.02" width="7.47" height="7.46"/><rect class="cls-2" x="67.48" y="52.55" width="7.47" height="7.47"/><rect class="cls-2" x="67.48" y="45.08" width="7.47" height="7.47"/><rect class="cls-2" x="67.48" y="7.72" width="7.47" height="7.47"/><rect class="cls-2" x="67.48" y="0.25" width="7.47" height="7.47"/><rect class="cls-2" x="60.02" y="119.78" width="7.46" height="7.47"/><rect class="cls-2" x="60.02" y="112.31" width="7.46" height="7.47"/><rect class="cls-2" x="60.02" y="104.84" width="7.46" height="7.47"/><rect class="cls-2" x="60.02" y="97.37" width="7.46" height="7.47"/><rect class="cls-2" x="60.02" y="74.95" width="7.46" height="7.47"/><rect class="cls-2" x="60.02" y="67.48" width="7.46" height="7.47"/><rect class="cls-2" x="60.02" y="60.02" width="7.46" height="7.46"/><rect class="cls-2" x="60.02" y="52.55" width="7.46" height="7.47"/><rect class="cls-2" x="60.02" y="45.08" width="7.46" height="7.47"/><rect class="cls-2" x="60.02" y="22.66" width="7.46" height="7.47"/><rect class="cls-2" x="60.02" y="15.19" width="7.46" height="7.47"/><rect class="cls-2" x="60.02" y="7.72" width="7.46" height="7.47"/><rect class="cls-2" x="60.02" y="0.25" width="7.46" height="7.47"/><rect class="cls-2" x="52.55" y="119.78" width="7.47" height="7.47"/><rect class="cls-2" x="52.55" y="112.31" width="7.47" height="7.47"/><rect class="cls-2" x="52.55" y="74.95" width="7.47" height="7.47"/><rect class="cls-2" x="52.55" y="67.48" width="7.47" height="7.47"/><rect class="cls-2" x="52.55" y="60.02" width="7.47" height="7.46"/><rect class="cls-2" x="52.55" y="52.55" width="7.47" height="7.47"/><rect class="cls-2" x="52.55" y="45.08" width="7.47" height="7.47"/><rect class="cls-2" x="52.55" y="7.72" width="7.47" height="7.47"/><rect class="cls-2" x="52.55" y="0.25" width="7.47" height="7.47"/><rect class="cls-2" x="45.08" y="119.78" width="7.47" height="7.47"/><rect class="cls-2" x="45.08" y="112.31" width="7.47" height="7.47"/><rect class="cls-2" x="45.08" y="67.48" width="7.47" height="7.47"/><rect class="cls-2" x="45.08" y="60.02" width="7.47" height="7.46"/><rect class="cls-2" x="45.08" y="52.55" width="7.47" height="7.47"/><rect class="cls-2" x="45.08" y="7.72" width="7.47" height="7.47"/><rect class="cls-2" x="45.08" y="0.25" width="7.47" height="7.47"/><rect class="cls-2" x="37.61" y="112.31" width="7.47" height="7.47"/><rect class="cls-2" x="37.61" y="104.84" width="7.47" height="7.47"/><rect class="cls-2" x="37.61" y="15.19" width="7.47" height="7.47"/><rect class="cls-2" x="37.61" y="7.72" width="7.47" height="7.47"/><rect class="cls-2" x="30.13" y="112.31" width="7.47" height="7.47"/><rect class="cls-2" x="30.13" y="104.84" width="7.47" height="7.47"/><rect class="cls-2" x="30.13" y="15.19" width="7.47" height="7.47"/><rect class="cls-2" x="30.13" y="7.72" width="7.47" height="7.47"/><rect class="cls-2" x="22.66" y="104.84" width="7.47" height="7.47"/><rect class="cls-2" x="22.66" y="97.37" width="7.47" height="7.47"/><rect class="cls-2" x="22.66" y="60.02" width="7.47" height="7.46"/><rect class="cls-2" x="22.66" y="22.66" width="7.47" height="7.47"/><rect class="cls-2" x="22.66" y="15.19" width="7.47" height="7.47"/><rect class="cls-2" x="15.19" y="104.84" width="7.47" height="7.47"/><rect class="cls-2" x="15.19" y="97.37" width="7.47" height="7.47"/><rect class="cls-2" x="15.19" y="89.89" width="7.47" height="7.47"/><rect class="cls-2" x="15.19" y="82.42" width="7.47" height="7.47"/><rect class="cls-2" x="15.19" y="60.02" width="7.47" height="7.46"/><rect class="cls-2" x="15.19" y="37.61" width="7.47" height="7.47"/><rect class="cls-2" x="15.19" y="30.13" width="7.47" height="7.47"/><rect class="cls-2" x="15.19" y="22.66" width="7.47" height="7.47"/><rect class="cls-2" x="15.19" y="15.19" width="7.47" height="7.47"/><rect class="cls-2" x="7.72" y="89.89" width="7.47" height="7.47"/><rect class="cls-2" x="7.72" y="82.42" width="7.47" height="7.47"/><rect class="cls-2" x="7.72" y="74.95" width="7.47" height="7.47"/><rect class="cls-2" x="7.72" y="67.48" width="7.47" height="7.47"/><rect class="cls-2" x="7.72" y="60.02" width="7.47" height="7.46"/><rect class="cls-2" x="7.72" y="52.55" width="7.47" height="7.47"/><rect class="cls-2" x="7.72" y="45.08" width="7.47" height="7.47"/><rect class="cls-2" x="7.72" y="37.61" width="7.47" height="7.47"/><rect class="cls-2" x="7.72" y="30.13" width="7.47" height="7.47"/><rect class="cls-2" x="0.25" y="74.95" width="7.47" height="7.47"/><rect class="cls-2" x="0.25" y="67.48" width="7.47" height="7.47"/><rect class="cls-2" x="0.25" y="60.02" width="7.47" height="7.46"/><rect class="cls-2" x="0.25" y="52.55" width="7.47" height="7.47"/><rect class="cls-2" x="0.25" y="45.08" width="7.47" height="7.47"/></g></g></svg>