<svg id="visual" viewBox="0 0 360 1080" width="360" height="1080" xmlns="http://www.w3.org/2000/svg" xmlns:xlink="http://www.w3.org/1999/xlink" version="1.1"><rect x="0" y="0" width="360" height="1080" fill="#140021"></rect><path d="M285 0L254 0L254 154L319 154L319 309L251 309L251 463L282 463L282 617L316 617L316 771L305 771L305 926L299 926L299 1080L0 1080L0 926L0 926L0 771L0 771L0 617L0 617L0 463L0 463L0 309L0 309L0 154L0 154L0 0L0 0Z" fill="#f5ed10"></path><path d="M227 0L180 0L180 154L257 154L257 309L190 309L190 463L232 463L232 617L213 617L213 771L232 771L232 926L209 926L209 1080L0 1080L0 926L0 926L0 771L0 771L0 617L0 617L0 463L0 463L0 309L0 309L0 154L0 154L0 0L0 0Z" fill="#ff7b4f"></path><path d="M106 0L127 0L127 154L124 154L124 309L128 309L128 463L147 463L147 617L187 617L187 771L144 771L144 926L160 926L160 1080L0 1080L0 926L0 926L0 771L0 771L0 617L0 617L0 463L0 463L0 309L0 309L0 154L0 154L0 0L0 0Z" fill="#b94088"></path><path d="M115 0L76 0L76 154L61 154L61 309L92 309L92 463L57 463L57 617L75 617L75 771L81 771L81 926L79 926L79 1080L0 1080L0 926L0 926L0 771L0 771L0 617L0 617L0 463L0 463L0 309L0 309L0 154L0 154L0 0L0 0Z" fill="#143776"></path></svg>