<svg id="visual" viewBox="0 0 360 1080" width="360" height="1080" xmlns="http://www.w3.org/2000/svg" xmlns:xlink="http://www.w3.org/1999/xlink" version="1.1"><path d="M153 0L150 0L150 154L202 154L202 309L210 309L210 463L173 463L173 617L161 617L161 771L203 771L203 926L165 926L165 1080L0 1080L0 926L0 926L0 771L0 771L0 617L0 617L0 463L0 463L0 309L0 309L0 154L0 154L0 0L0 0Z" fill="#143776"></path><path d="M137 0L134 0L134 154L118 154L118 309L164 309L164 463L106 463L106 617L164 617L164 771L150 771L150 926L121 926L121 1080L0 1080L0 926L0 926L0 771L0 771L0 617L0 617L0 463L0 463L0 309L0 309L0 154L0 154L0 0L0 0Z" fill="#31539a"></path><path d="M78 0L96 0L96 154L71 154L71 309L102 309L102 463L110 463L110 617L101 617L101 771L122 771L122 926L75 926L75 1080L0 1080L0 926L0 926L0 771L0 771L0 617L0 617L0 463L0 463L0 309L0 309L0 154L0 154L0 0L0 0Z" fill="#4b72c0"></path><path d="M59 0L33 0L33 154L56 154L56 309L31 309L31 463L59 463L59 617L41 617L41 771L31 771L31 926L68 926L68 1080L0 1080L0 926L0 926L0 771L0 771L0 617L0 617L0 463L0 463L0 309L0 309L0 154L0 154L0 0L0 0Z" fill="#6592e8"></path></svg>