<?xml version="1.0" encoding="utf-8"?>
<!-- Generator: Adobe Illustrator 25.3.1, SVG Export Plug-In . SVG Version: 6.00 Build 0)  -->
<svg version="1.1" id="visual" xmlns="http://www.w3.org/2000/svg" xmlns:xlink="http://www.w3.org/1999/xlink" x="0px" y="0px"
	 viewBox="0 0 360 1080" style="enable-background:new 0 0 360 1080;" xml:space="preserve">
<style type="text/css">
	.st0{fill:#143776;}
	.st1{fill:#31539A;}
	.st2{fill:#4B72C0;}
	.st3{fill:#6592E8;}
</style>
<path class="st0" d="M153,0h-3v154h52v155h8v154h-37v154h-12v154h42v155h-38v154H0V926l0,0V771l0,0V617l0,0V463l0,0V309l0,0V154l0,0
	V0l0,0H153z"/>
<polygon class="st1" points="164,463 164,309 118,309 118,154 134,154 134,42.3 50.3,42.3 50.3,0 0,0 0,154 0,309 0,463 0,617 
	0,771 0,926 0,1080 45.7,1080 45.7,1045.7 121,1045.7 121,926 150,926 150,771 164,771 164,617 106,617 106,463 "/>
<polygon class="st2" points="101,771 101,617 110,617 110,463 102,463 102,309 71,309 71,154 96,154 96,41.3 28.7,41.3 28.7,0 0,0 
	0,154 0,309 0,463 0,617 0,771 0,926 0,1080 21.3,1080 21.3,1027 75,1027 75,926 122,926 122,771 "/>
<polygon class="st3" points="68,1049.3 68,926 31,926 31,771 41,771 41,617 59,617 59,463 31,463 31,309 56,309 56,154 33,154 33,0 
	0,0 0,154 0,309 0,463 0,617 0,771 0,926 0,1049.3 "/>
</svg>
