<svg id="visual" viewBox="0 0 360 1080" width="360" height="1080" xmlns="http://www.w3.org/2000/svg" xmlns:xlink="http://www.w3.org/1999/xlink" version="1.1"><path d="M232 0L295 0L295 154L285 154L285 309L298 309L298 463L237 463L237 617L221 617L221 771L286 771L286 926L313 926L313 1080L0 1080L0 926L0 926L0 771L0 771L0 617L0 617L0 463L0 463L0 309L0 309L0 154L0 154L0 0L0 0Z" fill="#6592e8"></path><path d="M220 0L218 0L218 154L178 154L178 309L191 309L191 463L194 463L194 617L181 617L181 771L245 771L245 926L210 926L210 1080L0 1080L0 926L0 926L0 771L0 771L0 617L0 617L0 463L0 463L0 309L0 309L0 154L0 154L0 0L0 0Z" fill="#4b72c0"></path><path d="M139 0L123 0L123 154L172 154L172 309L140 309L140 463L136 463L136 617L109 617L109 771L137 771L137 926L168 926L168 1080L0 1080L0 926L0 926L0 771L0 771L0 617L0 617L0 463L0 463L0 309L0 309L0 154L0 154L0 0L0 0Z" fill="#31539a"></path><path d="M46 0L59 0L59 154L42 154L42 309L88 309L88 463L105 463L105 617L73 617L73 771L51 771L51 926L80 926L80 1080L0 1080L0 926L0 926L0 771L0 771L0 617L0 617L0 463L0 463L0 309L0 309L0 154L0 154L0 0L0 0Z" fill="#143776"></path></svg>