<svg id="visual" viewBox="0 0 960 1080" width="960" height="1080" xmlns="http://www.w3.org/2000/svg" xmlns:xlink="http://www.w3.org/1999/xlink" version="1.1"><path d="M255 1080L150 1080L150 945L143 945L143 810L183 810L183 675L203 675L203 540L160 540L160 405L163 405L163 270L164 270L164 135L231 135L231 0L960 0L960 135L960 135L960 270L960 270L960 405L960 405L960 540L960 540L960 675L960 675L960 810L960 810L960 945L960 945L960 1080L960 1080Z" fill="#feb81c"></path><path d="M354 1080L297 1080L297 945L261 945L261 810L269 810L269 675L321 675L321 540L272 540L272 405L403 405L403 270L328 270L328 135L317 135L317 0L960 0L960 135L960 135L960 270L960 270L960 405L960 405L960 540L960 540L960 675L960 675L960 810L960 810L960 945L960 945L960 1080L960 1080Z" fill="#ffa50b"></path><path d="M454 1080L493 1080L493 945L421 945L421 810L522 810L522 675L496 675L496 540L386 540L386 405L387 405L387 270L406 270L406 135L473 135L473 0L960 0L960 135L960 135L960 270L960 270L960 405L960 405L960 540L960 540L960 675L960 675L960 810L960 810L960 945L960 945L960 1080L960 1080Z" fill="#fe9201"></path><path d="M525 1080L529 1080L529 945L604 945L604 810L549 810L549 675L581 675L581 540L595 540L595 405L520 405L520 270L640 270L640 135L628 135L628 0L960 0L960 135L960 135L960 270L960 270L960 405L960 405L960 540L960 540L960 675L960 675L960 810L960 810L960 945L960 945L960 1080L960 1080Z" fill="#fd7d00"></path><path d="M658 1080L673 1080L673 945L751 945L751 810L698 810L698 675L718 675L718 540L738 540L738 405L751 405L751 270L669 270L669 135L741 135L741 0L960 0L960 135L960 135L960 270L960 270L960 405L960 405L960 540L960 540L960 675L960 675L960 810L960 810L960 945L960 945L960 1080L960 1080Z" fill="#fc6702"></path><path d="M824 1080L822 1080L822 945L772 945L772 810L830 810L830 675L855 675L855 540L821 540L821 405L820 405L820 270L796 270L796 135L847 135L847 0L960 0L960 135L960 135L960 270L960 270L960 405L960 405L960 540L960 540L960 675L960 675L960 810L960 810L960 945L960 945L960 1080L960 1080Z" fill="#f94d0c"></path></svg>