<svg id="visual" viewBox="0 0 360 1080" width="360" height="1080" xmlns="http://www.w3.org/2000/svg" xmlns:xlink="http://www.w3.org/1999/xlink" version="1.1"><path d="M183 0L210 0L210 60L165 60L165 120L187 120L187 180L166 180L166 240L213 240L213 300L190 300L190 360L186 360L186 420L163 420L163 480L194 480L194 540L162 540L162 600L175 600L175 660L196 660L196 720L173 720L173 780L167 780L167 840L179 840L179 900L181 900L181 960L165 960L165 1020L173 1020L173 1080L0 1080L0 1020L0 1020L0 960L0 960L0 900L0 900L0 840L0 840L0 780L0 780L0 720L0 720L0 660L0 660L0 600L0 600L0 540L0 540L0 480L0 480L0 420L0 420L0 360L0 360L0 300L0 300L0 240L0 240L0 180L0 180L0 120L0 120L0 60L0 60L0 0L0 0Z" fill="#143776"></path><path d="M147 0L145 0L145 60L146 60L146 120L153 120L153 180L145 180L145 240L152 240L152 300L164 300L164 360L141 360L141 420L129 420L129 480L126 480L126 540L141 540L141 600L155 600L155 660L150 660L150 720L153 720L153 780L138 780L138 840L151 840L151 900L135 900L135 960L137 960L137 1020L131 1020L131 1080L0 1080L0 1020L0 1020L0 960L0 960L0 900L0 900L0 840L0 840L0 780L0 780L0 720L0 720L0 660L0 660L0 600L0 600L0 540L0 540L0 480L0 480L0 420L0 420L0 360L0 360L0 300L0 300L0 240L0 240L0 180L0 180L0 120L0 120L0 60L0 60L0 0L0 0Z" fill="#31539a"></path><path d="M83 0L112 0L112 60L97 60L97 120L115 120L115 180L105 180L105 240L91 240L91 300L95 300L95 360L92 360L92 420L99 420L99 480L102 480L102 540L104 540L104 600L117 600L117 660L114 660L114 720L78 720L78 780L113 780L113 840L107 840L107 900L118 900L118 960L75 960L75 1020L84 1020L84 1080L0 1080L0 1020L0 1020L0 960L0 960L0 900L0 900L0 840L0 840L0 780L0 780L0 720L0 720L0 660L0 660L0 600L0 600L0 540L0 540L0 480L0 480L0 420L0 420L0 360L0 360L0 300L0 300L0 240L0 240L0 180L0 180L0 120L0 120L0 60L0 60L0 0L0 0Z" fill="#4b72c0"></path><path d="M54 0L56 0L56 60L62 60L62 120L67 120L67 180L69 180L69 240L44 240L44 300L68 300L68 360L47 360L47 420L32 420L32 480L45 480L45 540L66 540L66 600L46 600L46 660L64 660L64 720L35 720L35 780L34 780L34 840L56 840L56 900L49 900L49 960L45 960L45 1020L60 1020L60 1080L0 1080L0 1020L0 1020L0 960L0 960L0 900L0 900L0 840L0 840L0 780L0 780L0 720L0 720L0 660L0 660L0 600L0 600L0 540L0 540L0 480L0 480L0 420L0 420L0 360L0 360L0 300L0 300L0 240L0 240L0 180L0 180L0 120L0 120L0 60L0 60L0 0L0 0Z" fill="#6592e8"></path></svg>