<svg id="visual" viewBox="0 0 1440 1080" width="1440" height="1080" xmlns="http://www.w3.org/2000/svg" xmlns:xlink="http://www.w3.org/1999/xlink" version="1.1"><path d="M943 0L876 0L876 135L1108 135L1108 270L949 270L949 405L1119 405L1119 540L861 540L861 675L1064 675L1064 810L756 810L756 945L824 945L824 1080L0 1080L0 945L0 945L0 810L0 810L0 675L0 675L0 540L0 540L0 405L0 405L0 270L0 270L0 135L0 135L0 0L0 0Z" fill="#ffc900"></path><path d="M655 0L742 0L742 135L793 135L793 270L826 270L826 405L883 405L883 540L639 540L639 675L923 675L923 810L749 810L749 945L933 945L933 1080L0 1080L0 945L0 945L0 810L0 810L0 675L0 675L0 540L0 540L0 405L0 405L0 270L0 270L0 135L0 135L0 0L0 0Z" fill="#ff7d27"></path><path d="M630 0L448 0L448 135L520 135L520 270L581 270L581 405L493 405L493 540L749 540L749 675L411 675L411 810L672 810L672 945L594 945L594 1080L0 1080L0 945L0 945L0 810L0 810L0 675L0 675L0 540L0 540L0 405L0 405L0 270L0 270L0 135L0 135L0 0L0 0Z" fill="#f82053"></path><path d="M467 0L463 0L463 135L276 135L276 270L375 270L375 405L267 405L267 540L492 540L492 675L285 675L285 810L373 810L373 945L510 945L510 1080L0 1080L0 945L0 945L0 810L0 810L0 675L0 675L0 540L0 540L0 405L0 405L0 270L0 270L0 135L0 135L0 0L0 0Z" fill="#be0079"></path><path d="M226 0L301 0L301 135L155 135L155 270L168 270L168 405L131 405L131 540L196 540L196 675L306 675L306 810L122 810L122 945L185 945L185 1080L0 1080L0 945L0 945L0 810L0 810L0 675L0 675L0 540L0 540L0 405L0 405L0 270L0 270L0 135L0 135L0 0L0 0Z" fill="#560090"></path></svg>