<?xml version="1.0" standalone="no"?>
<!DOCTYPE svg PUBLIC "-//W3C//DTD SVG 20010904//EN"
 "http://www.w3.org/TR/2001/REC-SVG-20010904/DTD/svg10.dtd">
<svg version="1.0" xmlns="http://www.w3.org/2000/svg"
 width="700.000000pt" height="700.000000pt" viewBox="0 0 700.000000 700.000000"
 preserveAspectRatio="xMidYMid meet">
<metadata>
Created by potrace 1.14, written by Peter Selinger 2001-2017
</metadata>
<g transform="translate(0.000000,700.000000) scale(0.100000,-0.100000)"
fill="#000000" stroke="none">
<path d="M2150 5974 l0 -64 -65 0 c-64 0 -65 0 -66 -27 -4 -261 0 -4786 6
-4791 6 -7 2946 -4 2953 3 2 2 4 27 5 57 l1 53 65 5 65 5 1 330 c0 182 -1 335
-3 341 -2 8 -308 11 -1143 12 -627 0 -1143 3 -1146 6 -4 4 -7 935 -8 2069 l0
2062 -332 1 -333 1 0 -63z"/>
<path d="M3091 5760 c-4 -3 -7 -29 -6 -58 1 -29 -2 -55 -7 -58 -4 -3 -34 -5
-66 -5 l-59 -1 0 -207 0 -208 396 0 396 0 3 -285 2 -284 -330 0 c-286 1 -330
-1 -331 -14 -1 -8 -2 -35 -3 -60 l-1 -45 -65 -5 -65 -5 -1 -202 c-2 -201 -1
-203 20 -204 26 -1 1546 -1 1564 0 8 1 12 20 12 61 0 41 4 60 13 61 6 1 33 2
59 3 25 0 49 4 52 7 4 3 7 68 9 144 l2 138 130 1 130 0 5 60 5 60 63 0 62 0 0
343 c0 189 -3 343 -7 344 -10 1 -365 1 -380 0 -9 -1 -13 -20 -13 -60 l0 -59
-52 0 c-29 0 -59 0 -65 -1 -10 -1 -13 -65 -13 -284 l0 -284 -132 1 -133 1 -1
283 -1 282 26 1 c14 0 73 1 131 2 l105 2 3 63 3 62 64 0 65 0 1 58 c2 153 -2
346 -7 351 -7 7 -1573 8 -1583 1z"/>
<path d="M3084 3633 l1 -58 -66 -3 -67 -3 2 -551 1 -552 188 0 c104 -1 194 2
199 5 6 4 11 31 12 60 l1 54 65 0 65 -1 0 286 0 285 133 0 132 1 0 -283 c0
-263 -1 -283 -17 -284 -10 0 -66 -1 -126 -1 -69 0 -110 -4 -115 -12 -4 -6 -8
-27 -8 -46 -1 -19 -2 -42 -3 -50 -1 -12 -15 -15 -63 -15 l-63 0 -2 -207 -2
-208 200 0 199 0 0 60 0 60 65 0 c60 0 65 2 66 23 0 12 1 77 1 145 l0 122 134
0 134 0 0 -205 0 -205 200 0 200 0 0 60 0 60 65 0 65 0 1 48 c0 26 1 92 2 147
l2 100 130 0 130 1 3 61 3 61 62 -2 62 -1 3 553 2 552 -998 0 -999 0 1 -57z
m1466 -760 c0 -263 -1 -283 -17 -284 -10 0 -69 -1 -130 -1 -111 1 -113 0 -119
-24 -3 -13 -4 -38 -2 -55 7 -43 -13 -49 -119 -40 -9 1 -13 20 -13 60 l0 59 56
-2 c31 0 61 2 66 5 7 5 11 101 11 280 0 151 3 276 8 279 5 3 65 6 134 5 l125
0 0 -282z"/>
</g>
</svg>
