<?xml version="1.0" encoding="UTF-8"?>
<!DOCTYPE svg PUBLIC "-//W3C//DTD SVG 1.1//EN" "http://www.w3.org/Graphics/SVG/1.1/DTD/svg11.dtd">
<!-- Creator: CorelDRAW X7 -->
<svg xmlns="http://www.w3.org/2000/svg" xml:space="preserve" width="16535px" height="7087px" version="1.1" style="shape-rendering:geometricPrecision; text-rendering:geometricPrecision; image-rendering:optimizeQuality; fill-rule:evenodd; clip-rule:evenodd"
viewBox="0 0 16535 7086"
 xmlns:xlink="http://www.w3.org/1999/xlink">
 <defs>
  <style type="text/css">
   <![CDATA[
    .fil3 {fill:#FEFEFE}
    .fil1 {fill:#9FAFCC}
    .fil2 {fill:#FEB81C}
    .fil0 {fill:white}
   ]]>
  </style>
 </defs>
 <g id="Vrstva_x0020_1">
  <metadata id="CorelCorpID_0Corel-Layer"/>
  <rect class="fil0" x="3016" y="4014" width="2126" height="548"/>
  <rect class="fil0" x="713" y="703" width="886" height="6063"/>
  <rect class="fil0" x="713" y="336" width="3377" height="919"/>
  <rect class="fil0" x="1447" y="2724" width="1746" height="919"/>
  <rect class="fil0" x="2662" y="4378" width="886" height="2388"/>
  <rect class="fil0" x="3370" y="4378" width="709" height="551"/>
  <rect class="fil0" x="5496" y="4014" width="886" height="2752"/>
  <rect class="fil1" x="6914" y="336" width="886" height="6430"/>
  <rect class="fil1" x="7622" y="336" width="2486" height="919"/>
  <rect class="fil1" x="9577" y="1133" width="488" height="672"/>
  <rect class="fil1" x="9577" y="5296" width="488" height="803"/>
  <rect class="fil1" x="9931" y="703" width="709" height="1470"/>
  <rect class="fil1" x="9931" y="4929" width="709" height="1470"/>
  <rect class="fil1" x="10545" y="1254" width="626" height="4594"/>
  <rect class="fil0" x="12049" y="336" width="886" height="6430"/>
  <rect class="fil0" x="12887" y="5847" width="3059" height="919"/>
  <rect class="fil0" x="13291" y="703" width="2126" height="555"/>
  <rect class="fil0" x="13291" y="2179" width="2126" height="546"/>
  <rect class="fil0" x="14354" y="1145" width="531" height="1246"/>
  <rect class="fil0" x="15417" y="1258" width="531" height="920"/>
  <rect class="fil0" x="13291" y="3459" width="2657" height="555"/>
  <rect class="fil0" x="13291" y="3886" width="531" height="1047"/>
  <rect class="fil0" x="14354" y="3840" width="529" height="1093"/>
  <rect class="fil0" x="15417" y="3883" width="531" height="1050"/>
  <rect class="fil0" x="13823" y="4929" width="531" height="551"/>
  <rect class="fil0" x="14886" y="4929" width="531" height="551"/>
  <rect class="fil2" x="5496" y="2724" width="886" height="919"/>
  <rect class="fil1" x="10545" y="1718" width="975" height="3728"/>
  <rect class="fil3" x="4611" y="4014" width="531" height="918"/>
  <rect class="fil1" x="7622" y="5847" width="2486" height="919"/>
 </g>
</svg>
