<?xml version="1.0" encoding="utf-8"?>
<!-- Generator: Adobe Illustrator 26.0.3, SVG Export Plug-In . SVG Version: 6.00 Build 0)  -->
<svg version="1.1" xmlns="http://www.w3.org/2000/svg" xmlns:xlink="http://www.w3.org/1999/xlink" x="0px" y="0px"
	 viewBox="0 0 128 128" style="enable-background:new 0 0 128 128;" xml:space="preserve">
<style type="text/css">
	.st0{fill-rule:evenodd;clip-rule:evenodd;fill:#233A74;}
	.st1{fill:#233A74;}
	.st2{fill-rule:evenodd;clip-rule:evenodd;fill:#F3EA18;}
	.st3{fill:#F3EA18;}
</style>
<g id="Layer_1">
	<rect x="39.3" y="17.6" class="st0" width="12.2" height="88.3"/>
	<rect x="51.5" y="93.3" class="st0" width="42" height="12.6"/>
	<rect x="56.4" y="22.6" class="st0" width="29.2" height="7.6"/>
	<rect x="56.4" y="42.9" class="st0" width="29.2" height="7.5"/>
	<rect x="71" y="30.3" class="st1" width="7.3" height="12.6"/>
	<rect x="85.6" y="30.3" class="st0" width="7.3" height="12.6"/>
	<rect x="56.4" y="60.5" class="st0" width="36.5" height="7.6"/>
	<rect x="56.4" y="68.1" class="st0" width="7.3" height="12.6"/>
	<rect x="71" y="68.1" class="st0" width="7.3" height="12.6"/>
	<rect x="85.6" y="68.1" class="st0" width="7.3" height="12.6"/>
	<rect x="63.7" y="80.7" class="st0" width="7.3" height="7.6"/>
	<rect x="78.3" y="80.7" class="st0" width="7.3" height="7.6"/>
</g>
<g id="Layer_2">
	<rect x="36.9" y="19.9" class="st2" width="12.2" height="88.3"/>
	<rect x="48" y="95.5" class="st2" width="43.1" height="12.6"/>
	<rect x="54" y="24.9" class="st2" width="29.2" height="7.6"/>
	<rect x="54" y="45.2" class="st2" width="29.2" height="7.5"/>
	<rect x="68.6" y="31.2" class="st3" width="7.3" height="15.4"/>
	<rect x="83.2" y="32.5" class="st2" width="7.3" height="12.6"/>
	<rect x="54" y="62.7" class="st2" width="36.5" height="7.6"/>
	<rect x="54" y="69.3" class="st2" width="7.3" height="13.6"/>
	<rect x="68.6" y="68.6" class="st2" width="7.3" height="14.4"/>
	<rect x="83.2" y="69.3" class="st2" width="7.3" height="13.6"/>
	<rect x="61.3" y="82.9" class="st2" width="7.3" height="7.6"/>
	<rect x="75.9" y="82.9" class="st2" width="7.3" height="7.6"/>
</g>
</svg>
