<svg version="1.1" id="Layer_1" xmlns="http://www.w3.org/2000/svg" x="0" y="0" viewBox="0 0 128 128" style="enable-background:new 0 0 128 128" xml:space="preserve"><style>.st0{stroke:#000;stroke-width:.25;stroke-miterlimit:10}</style><g id="XMLID_00000021811822576277620990000011484516247787024559_"><path class="st0" d="M116.36 81.45H128v11.64h-11.64zM116.36 69.82H128v11.63h-11.64zM116.36 58.18H128v11.64h-11.64zM116.36 46.55H128v11.63h-11.64zM116.36 34.91H128v11.64h-11.64zM116.36 23.27H128v11.64h-11.64zM104.73 104.73h11.63v11.63h-11.63zM104.73 93.09h11.63v11.64h-11.63zM104.73 81.45h11.63v11.64h-11.63zM104.73 69.82h11.63v11.63h-11.63zM104.73 46.55h11.63v11.63h-11.63zM104.73 34.91h11.63v11.64h-11.63zM104.73 23.27h11.63v11.64h-11.63z"/><path class="st0" d="M104.73 11.64h11.63v11.63h-11.63zM93.09 104.73h11.64v11.63H93.09zM93.09 93.09h11.64v11.64H93.09zM93.09 23.27h11.64v11.64H93.09z"/><path class="st0" d="M93.09 11.64h11.64v11.63H93.09zM81.45 116.36h11.64V128H81.45zM81.45 104.73h11.64v11.63H81.45zM81.45 58.18h11.64v11.64H81.45zM81.45 11.64h11.64v11.63H81.45zM81.45 0h11.64v11.64H81.45zM69.82 116.36h11.63V128H69.82zM69.82 104.73h11.63v11.63H69.82zM69.82 58.18h11.63v11.64H69.82zM69.82 11.64h11.63v11.63H69.82zM69.82 0h11.63v11.64H69.82zM58.18 116.36h11.64V128H58.18zM58.18 58.18h11.64v11.64H58.18zM58.18 46.55h11.64v11.63H58.18zM58.18 34.91h11.64v11.64H58.18zM58.18 0h11.64v11.64H58.18zM46.55 116.36h11.63V128H46.55zM46.55 104.73h11.63v11.63H46.55zM46.55 11.64h11.63v11.63H46.55zM46.55 0h11.63v11.64H46.55zM34.91 116.36h11.64V128H34.91zM34.91 104.73h11.64v11.63H34.91zM34.91 11.64h11.64v11.63H34.91zM34.91 0h11.64v11.64H34.91zM23.27 104.73h11.64v11.63H23.27zM23.27 93.09h11.64v11.64H23.27zM23.27 23.27h11.64v11.64H23.27z"/><path class="st0" d="M23.27 11.64h11.64v11.63H23.27zM11.64 104.73h11.63v11.63H11.64zM11.64 93.09h11.63v11.64H11.64zM11.64 81.45h11.63v11.64H11.64zM11.64 69.82h11.63v11.63H11.64zM11.64 46.55h11.63v11.63H11.64zM11.64 34.91h11.63v11.64H11.64z"/><path class="st0" d="M11.64 23.27h11.63v11.64H11.64z"/><path class="st0" d="M11.64 11.64h11.63v11.63H11.64zM0 81.45h11.64v11.64H0zM0 69.82h11.64v11.63H0zM0 58.18h11.64v11.64H0zM0 46.55h11.64v11.63H0zM0 34.91h11.64v11.64H0z"/></g></svg>